LG_Walk_Normal10																		
version=1																		
nRows=36																		
nColumns=19																		
inDegrees=yes																		
endheader																		
time	ground_force2_vx	ground_force2_vy	ground_force2_vz	ground_force2_px	ground_force2_py	ground_force2_pz	ground_torque2_x	ground_torque2_y	ground_torque2_z	ground_force1_vx	ground_force1_vy	ground_force1_vz	ground_force1_px	ground_force1_py	ground_force1_pz	ground_torque1_x	ground_torque1_y	ground_torque1_z
5.28	-11.3626	446.665405	66.364105	0.167843	0	-0.250907	1.00E-05	0.528021	1.00E-06	29.315435	480.919617	-93.934494	-0.079976	0	0.239122	-5.00E-06	0.398513	-2.00E-06
5.281	-11.520467	447.192322	66.364105	0.167843	0	-0.250926	1.00E-05	0.5124	7.00E-06	28.13829	473.859314	-93.386063	-0.079886	0	0.239122	1.00E-06	0.326119	-2.00E-06
5.282	-12.694726	447.192322	66.364105	0.167843	0	-0.250744	6.00E-06	0.5124	7.00E-06	26.960423	465.262634	-93.072495	-0.079886	0	0.238996	-8.00E-06	0.289846	-2.00E-06
5.283	-12.851149	447.873474	65.894203	0.168028	0	-0.251881	6.00E-06	0.532787	1.00E-06	25.787607	461.827759	-92.210709	-0.079891	0	0.238604	-4.00E-06	0.289846	-3.00E-06
5.284	-13.793298	448.395386	65.894203	0.168419	0	-0.251881	6.00E-06	0.557851	1.00E-06	25.161194	452.726562	-91.818771	-0.079975	0	0.238298	-7.00E-06	0.257646	-3.00E-06
5.285	-14.420435	448.572021	65.894203	0.16848	0	-0.251887	4.00E-06	0.532787	2.00E-06	23.984047	450.676422	-90.799995	-0.080282	0	0.238298	-4.00E-06	0.275767	-3.00E-06
5.286	-16.221109	448.746368	65.345932	0.168495	0	-0.252044	4.00E-06	0.474672	4.00E-06	23.904755	445.148926	-90.173065	-0.080282	0	0.238298	-3.00E-06	0.200037	-3.00E-06
5.287	-16.613251	450.291931	65.267563	0.168692	0	-0.25299	2.00E-06	0.474672	4.00E-06	23.036846	432.945007	-89.154488	-0.079309	0	0.236817	-3.00E-06	0.050592	-3.00E-06
5.288	-17.555399	451.318359	65.267479	0.168867	0	-0.253049	2.00E-06	0.523419	4.00E-06	22.25473	423.840729	-87.665604	-0.079309	0	0.236817	-4.00E-06	0.050592	-3.00E-06
5.289	-19.200373	451.509277	65.267479	0.16943	0	-0.253049	2.00E-06	0.523419	1.00E-06	21.080471	421.427582	-86.960266	-0.079641	0	0.237622	-4.00E-06	0.078696	-3.00E-06
5.29	-19.59107	451.509277	65.110977	0.169539	0	-0.253127	6.00E-06	0.52245	4.00E-06	20.921883	413.520233	-86.019852	-0.079788	0	0.237939	-4.00E-06	0.078696	-3.00E-06
5.291	-20.296782	451.509277	65.03273	0.169539	0	-0.253735	6.00E-06	0.501024	4.00E-06	19.741129	407.845764	-85.079575	-0.079788	0	0.237986	1.00E-06	0.011298	-3.00E-06
5.292	-21.47176	451.848267	65.03273	0.169539	0	-0.254417	4.00E-06	0.48924	4.00E-06	19.432611	401.649475	-84.531013	-0.07941	0	0.237986	-3.00E-06	-0.092549	-3.00E-06
5.293	-22.098177	452.518707	65.033012	0.169895	0	-0.254747	4.00E-06	0.439164	3.00E-06	18.409006	390.825684	-83.042053	-0.079264	0	0.23608	-3.00E-06	-0.092549	-3.00E-06
5.294	-23.898129	452.518707	65.18959	0.169538	0	-0.254777	7.00E-06	0.439164	0	18.171122	382.739716	-82.258461	-0.079264	0	0.23608	-3.00E-06	-0.092549	-2.00E-06
5.295	-24.216028	452.885132	65.18959	0.170339	0	-0.254802	7.00E-06	0.392758	0	17.463247	377.076782	-80.377884	-0.079264	0	0.235734	-1.00E-06	-0.233794	-2.00E-06
5.296	-24.840279	452.178864	65.11158	0.169538	0	-0.254802	8.00E-06	0.552415	2.00E-06	17.463247	366.239899	-80.377602	-0.079888	0	0.237366	-1.00E-06	-0.233794	-1.00E-06
5.297	-26.018145	453.04245	64.876549	0.170331	0	-0.25587	7.00E-06	0.392758	2.00E-06	15.038321	361.76886	-79.045456	-0.079012	0	0.235778	-1.00E-06	-0.233794	-1.00E-06
5.298	-26.328106	453.04245	65.11158	0.169808	0	-0.255151	3.00E-06	0.552415	3.00E-06	15.033992	353.161438	-78.732018	-0.079323	0	0.235778	-3.00E-06	-0.177391	0
5.299	-26.959574	453.04245	65.346779	0.169808	0	-0.255391	3.00E-06	0.477422	3.00E-06	14.87757	343.731232	-77.164642	-0.079323	0	0.235778	0	-0.242985	1.00E-06
5.3	-28.130222	453.043274	65.73851	0.169808	0	-0.255391	4.00E-06	0.544893	3.00E-06	14.251153	338.216461	-75.51918	-0.079323	0	0.235783	-2.00E-06	-0.177391	1.00E-06
5.301	-28.211681	454.76355	65.738586	0.170063	0	-0.25571	7.00E-06	0.477422	4.00E-06	14.093286	329.598175	-74.108627	-0.07865	0	0.235783	-2.00E-06	-0.263315	1.00E-06
5.302	-28.758083	454.770142	65.973618	0.17037	0	-0.256383	5.00E-06	0.517745	4.00E-06	13.303952	318.779358	-72.933182	-0.07865	0	0.235037	-2.00E-06	-0.325746	1.00E-06
5.303	-29.30809	455.974731	65.73867	0.170427	0	-0.256795	5.00E-06	0.483464	2.00E-06	12.991107	313.284668	-71.600883	-0.078748	0	0.234486	-2.00E-06	-0.412559	0
5.304	-29.388828	456.488464	66.679039	0.170427	0	-0.256845	0	0.517745	2.00E-06	12.831794	304.164978	-69.877052	-0.079236	0	0.234486	-2.00E-06	-0.443877	-2.00E-06
5.305	-30.170944	457.698486	66.522377	0.17091	0	-0.256845	0	0.483464	2.00E-06	11.812518	296.796844	-69.014801	-0.079314	0	0.234022	-2.00E-06	-0.443877	-2.00E-06
5.306	-31.032356	458.913147	66.679039	0.170885	0	-0.257222	1.00E-05	0.519769	2.00E-06	11.812518	289.216919	-66.193985	-0.079314	0	0.233764	-3.00E-06	-0.499218	-1.00E-06
5.307	-31.190222	461.835022	67.227676	0.17112	0	-0.257071	1.00E-05	0.475864	2.00E-06	12.042461	278.373779	-64.078499	-0.078618	0	0.233764	-2.00E-06	-0.605758	-1.00E-06
5.308	-31.578033	461.835022	67.306168	0.171334	0	-0.257071	1.00E-05	0.329697	2.00E-06	12.042461	265.302338	-62.197754	-0.078359	0	0.231423	-3.00E-06	-0.711632	-1.00E-06
5.309	-32.365204	463.903259	67.619446	0.171836	0	-0.257071	1.00E-05	0.279152	4.00E-06	11.492453	259.13382	-60.708752	-0.078359	0	0.231389	-2.00E-06	-0.672267	1.00E-06
5.31	-33.376545	470.790283	68.481445	0.172049	0	-0.259069	1.00E-05	0.279152	6.00E-06	11.178164	253.62294	-57.731106	-0.078477	0	0.231389	-2.00E-06	-0.711632	1.00E-06
5.311	-33.770851	475.792358	68.873016	0.171836	0	-0.259383	1.40E-05	0.322092	6.00E-06	11.487402	243.649994	-55.693794	-0.078478	0	0.231656	-2.00E-06	-0.885571	-2.00E-06
5.312	-35.101532	479.232635	69.499779	0.172049	0	-0.25975	1.50E-05	0.446264	4.00E-06	11.015966	237.629532	-55.693794	-0.078478	0	0.231656	-2.00E-06	-0.885571	-2.00E-06
5.313	-35.253624	482.172974	69.969765	0.172243	0	-0.259878	1.40E-05	0.322092	4.00E-06	10.86171	225.414429	-53.264656	-0.078064	0	0.23006	-2.00E-06	-0.869676	-2.00E-06
5.314	-36.894989	485.279602	70.439873	0.172243	0	-0.259878	1.10E-05	0.354236	4.00E-06	10.86171	218.208649	-49.111572	-0.078035	0	0.228748	-2.00E-06	-0.869676	-1.00E-06
5.315	-37.050694	485.806519	71.771652	0.172383	0	-0.260229	7.00E-06	0.354236	1.00E-06	11.247355	209.276031	-45.428787	-0.078035	0	0.228748	-2.00E-06	-1.130257	-1.00E-06
